<svg width="251" height="250" viewBox="0 0 251 250" fill="none" xmlns="http://www.w3.org/2000/svg">
<path d="M243.864 183.475L208.902 148.586C196.416 136.126 175.189 141.111 170.195 157.308C166.449 168.523 153.963 174.753 142.725 172.261C117.752 166.03 84.0395 133.634 77.7963 107.468C74.0504 96.2536 81.5422 83.7935 92.7799 80.056C109.012 75.0719 114.006 53.8898 101.52 41.4297L66.5587 6.54154C56.5696 -2.18051 41.5861 -2.18051 32.8457 6.54154L9.1217 30.2157C-14.6022 55.1358 11.619 121.174 70.3046 179.737C128.99 238.299 195.167 265.712 220.14 240.791L243.864 217.117C252.605 207.149 252.605 192.197 243.864 183.475Z" fill="white"/>
</svg>
