<svg width="175" height="155" viewBox="0 0 175 155" fill="none" xmlns="http://www.w3.org/2000/svg">
<path d="M12.2275 79.1967L16.3902 85.4907L29.019 77.1382L33.1547 83.3913L20.5259 91.7437L27.0133 101.553L18.921 106.905L-0.000416991 78.2957L22.4371 63.4559L26.5728 69.7089L12.2275 79.1967ZM59.7433 80.4341C57.3728 82.0019 54.9096 82.9261 52.3536 83.2066C49.7976 83.4872 47.398 83.116 45.1549 82.093C42.9389 81.052 41.1012 79.4281 39.6415 77.2211C38.1999 75.0414 37.4337 72.7282 37.343 70.2816C37.2796 67.817 37.8725 65.4862 39.1218 63.2892C40.3803 61.0469 42.2084 59.1328 44.6061 57.547C47.0038 55.9612 49.4807 55.0281 52.0367 54.7475C54.5746 54.4397 56.9516 54.8063 59.1675 55.8473C61.3654 56.861 63.1942 58.4714 64.6538 60.6783C66.1135 62.8853 66.8887 65.2121 66.9794 67.6587C67.0701 70.1052 66.4861 72.4497 65.2276 74.692C63.9691 76.9343 62.141 78.8483 59.7433 80.4341ZM55.6617 74.2628C57.024 73.3618 57.8347 72.1597 58.0939 70.6567C58.3351 69.1264 57.9061 67.5303 56.8068 65.8682C55.7256 64.2334 54.4427 63.2412 52.9581 62.8914C51.4735 62.5417 50.0501 62.8174 48.6877 63.7184C47.3254 64.6194 46.5147 65.8214 46.2555 67.3245C45.9963 68.8275 46.4073 70.3964 47.4885 72.0312C48.5878 73.6933 49.8887 74.7128 51.3913 75.0897C52.8759 75.4395 54.2993 75.1638 55.6617 74.2628ZM91.0502 59.7282C88.6798 61.296 86.2165 62.2202 83.6606 62.5007C81.1046 62.7813 78.705 62.4101 76.4618 61.3871C74.2459 60.3461 72.4081 58.7222 70.9484 56.5152C69.5068 54.3355 68.7406 52.0223 68.6499 49.5757C68.5865 47.1111 69.1794 44.7803 70.4287 42.5833C71.6872 40.341 73.5154 38.4269 75.9131 36.8411C78.3108 35.2553 80.7876 34.3222 83.3436 34.0416C85.8816 33.7338 88.2585 34.1004 90.4744 35.1414C92.6723 36.1551 94.5011 37.7655 95.9608 39.9724C97.4204 42.1794 98.1956 44.5062 98.2863 46.9528C98.377 49.3993 97.7931 51.7438 96.5346 53.9861C95.276 56.2284 93.4479 58.1424 91.0502 59.7282ZM86.9686 53.5569C88.3309 52.6559 89.1417 51.4538 89.4009 49.9508C89.6421 48.4205 89.213 46.8244 88.1138 45.1623C87.0325 43.5275 85.7496 42.5353 84.2651 42.1855C82.7805 41.8358 81.357 42.1115 79.9947 43.0125C78.6324 43.9135 77.8216 45.1155 77.5624 46.6186C77.3032 48.1216 77.7142 49.6905 78.7954 51.3253C79.8947 52.9874 81.1956 54.0069 82.6982 54.3838C84.1828 54.7336 85.6063 54.4579 86.9686 53.5569ZM114.482 0.111777L134.538 30.4372L127.141 35.3297L125.681 33.1228C125.372 35.7944 123.774 38.0853 120.886 39.9955C118.87 41.329 116.724 42.0822 114.449 42.255C112.157 42.4006 109.943 41.9259 107.809 40.8309C105.702 39.7178 103.892 38.0169 102.378 35.7282C100.864 33.4395 100.017 31.1215 99.8349 28.7743C99.6625 26.3818 100.101 24.1727 101.15 22.1471C102.2 20.1214 103.732 18.4419 105.749 17.1083C108.392 15.3604 110.94 14.7717 113.393 15.3425L106.716 5.2476L114.482 0.111777ZM118.439 32.7429C119.774 31.8599 120.571 30.6669 120.83 29.1638C121.072 27.6335 120.643 26.0374 119.543 24.3753C118.462 22.7405 117.179 21.7483 115.695 21.3986C114.237 21.0308 112.827 21.2974 111.465 22.1985C110.103 23.0995 109.292 24.3015 109.033 25.8045C108.774 27.3076 109.185 28.8765 110.266 30.5113C111.365 32.1733 112.666 33.1928 114.169 33.5698C115.653 33.9195 117.077 33.6439 118.439 32.7429ZM40.9053 132.4L32.1183 138.212L27.8745 131.795L53.4999 114.847L57.7437 121.264L48.9976 127.048L63.6752 149.241L55.583 154.593L40.9053 132.4ZM88.2801 133.496C85.9096 135.064 83.4464 135.988 80.8904 136.269C78.3344 136.549 75.9349 136.178 73.6917 135.155C71.4758 134.114 69.638 132.49 68.1783 130.283C66.7367 128.103 65.9705 125.79 65.8798 123.344C65.8164 120.879 66.4093 118.548 67.6586 116.351C68.9171 114.109 70.7452 112.195 73.1429 110.609C75.5406 109.023 78.0175 108.09 80.5735 107.809C83.1115 107.502 85.4884 107.868 87.7043 108.909C89.9022 109.923 91.731 111.533 93.1907 113.74C94.6503 115.947 95.4255 118.274 95.5162 120.721C95.6069 123.167 95.023 125.512 93.7644 127.754C92.5059 129.996 90.6778 131.91 88.2801 133.496ZM84.1985 127.325C85.5608 126.424 86.3716 125.222 86.6308 123.719C86.8719 122.188 86.4429 120.592 85.3437 118.93C84.2624 117.295 82.9795 116.303 81.4949 115.953C80.0103 115.604 78.5869 115.879 77.2246 116.78C75.8622 117.681 75.0515 118.883 74.7923 120.386C74.5331 121.889 74.9441 123.458 76.0253 125.093C77.1246 126.755 78.4255 127.775 79.9281 128.152C81.4127 128.501 82.8361 128.226 84.1985 127.325ZM129.679 73.7456L136.442 101.114L128.922 106.088L116.779 96.7882L120.421 111.71L112.901 116.684L90.3622 99.7491L97.7188 94.8836L111.121 105.288L106.955 88.7747L113.576 84.3957L127.101 94.8962L122.854 78.2597L129.679 73.7456ZM150.322 59.5637C153.074 57.7436 155.822 57.1013 158.565 57.6369C161.336 58.1544 163.811 60.0616 165.992 63.3584L174.371 76.0281L166.606 81.1639L159.064 69.7612C157.064 66.7368 154.851 66.0266 152.427 67.6304C151.091 68.5134 150.304 69.6611 150.063 71.0736C149.849 72.4681 150.319 74.0373 151.473 75.781L158.555 86.4889L150.789 91.6248L136.139 69.4733L143.536 64.5808L145.131 66.9921C145.408 65.5163 145.993 64.1503 146.885 62.8943C147.76 61.6109 148.906 60.5007 150.322 59.5637Z" fill="black"/>
</svg>
