<svg width="56" height="56" viewBox="0 0 56 56" fill="none" xmlns="http://www.w3.org/2000/svg">
<g clip-path="url(#clip0)">
<path d="M22.4608 56C26.1169 56 29.0808 53.0361 29.0808 49.38C29.0808 45.7239 26.1169 42.76 22.4608 42.76C18.8047 42.76 15.8408 45.7239 15.8408 49.38C15.8408 53.0361 18.8047 56 22.4608 56Z" fill="black"/>
<path d="M41.7805 42.7601C38.1244 42.7601 35.1605 45.7241 35.1605 49.3801C35.1605 53.0362 38.1244 56.0001 41.7805 56.0001C45.4365 56.0001 48.4005 53.0362 48.4005 49.3801C48.4005 45.7241 45.4365 42.7601 41.7805 42.7601Z" fill="black"/>
<path d="M53.0615 36.0049H18.5429L17.8674 32.0869H46.2388C47.0734 32.0894 47.8243 31.5799 48.1303 30.8034L54.8854 13.7806C55.2958 12.7393 54.7843 11.5625 53.7431 11.1521C53.5045 11.0581 53.2503 11.0102 52.9939 11.011H14.3547L12.7335 1.68892C12.567 0.703225 11.7065 -0.0138452 10.707 0.000140025H2.93858C1.81937 0.000140025 0.912048 0.907462 0.912048 2.02667C0.912048 3.14588 1.81937 4.05321 2.93858 4.05321H9.01818L14.8276 38.3692C14.9941 39.3549 15.8546 40.0719 16.8541 40.0579H53.0615C54.1807 40.0579 55.088 39.1506 55.088 38.0314C55.088 36.9122 54.1807 36.0049 53.0615 36.0049Z" fill="black"/>
</g>
<defs>
<clipPath id="clip0">
<rect width="56" height="56" fill="white"/>
</clipPath>
</defs>
</svg>
